<svg width="16" height="16" viewBox="0 0 16 16" fill="none" xmlns="http://www.w3.org/2000/svg">
<path d="M11.9901 9.67114C12.0051 9.92065 12.2656 10.0889 12.4773 9.9561C13.7928 9.13082 14.6673 7.66762 14.6673 6.00016C14.6673 3.42283 12.578 1.3335 10.0006 1.3335C8.33318 1.3335 6.86999 2.20803 6.0447 3.52345C5.91186 3.73519 6.08016 3.9957 6.32967 4.0107C9.31356 4.19009 11.8107 6.68983 11.9901 9.67114Z" fill="#3772FF"/>
<path d="M10.6673 10.0002C10.6673 12.5775 8.57798 14.6668 6.00065 14.6668C3.42332 14.6668 1.33398 12.5775 1.33398 10.0002C1.33398 7.42283 3.42332 5.3335 6.00065 5.3335C8.57798 5.3335 10.6673 7.42283 10.6673 10.0002Z" fill="#3772FF"/>
</svg>
