<svg width="16" height="16" viewBox="0 0 16 16" fill="none" xmlns="http://www.w3.org/2000/svg">
<path fill-rule="evenodd" clip-rule="evenodd" d="M8.00065 13.3335C10.9462 13.3335 13.334 10.9457 13.334 8.00016C13.334 5.05464 10.9462 2.66683 8.00065 2.66683C5.05513 2.66683 2.66732 5.05464 2.66732 8.00016C2.66732 10.9457 5.05513 13.3335 8.00065 13.3335ZM8.00065 14.6668C11.6825 14.6668 14.6673 11.6821 14.6673 8.00016C14.6673 4.31826 11.6825 1.3335 8.00065 1.3335C4.31875 1.3335 1.33398 4.31826 1.33398 8.00016C1.33398 11.6821 4.31875 14.6668 8.00065 14.6668Z" fill="#777E91"/>
<path fill-rule="evenodd" clip-rule="evenodd" d="M9.1638 12.1179C9.65627 11.133 9.99935 9.679 9.99935 8.00016C9.99935 6.32132 9.65627 4.86734 9.1638 3.8824C8.63146 2.81771 8.14272 2.66683 7.99935 2.66683C7.85598 2.66683 7.36724 2.81771 6.8349 3.8824C6.34243 4.86734 5.99935 6.32132 5.99935 8.00016C5.99935 9.679 6.34243 11.133 6.8349 12.1179C7.36724 13.1826 7.85598 13.3335 7.99935 13.3335C8.14272 13.3335 8.63146 13.1826 9.1638 12.1179ZM7.99935 14.6668C9.8403 14.6668 11.3327 11.6821 11.3327 8.00016C11.3327 4.31826 9.8403 1.3335 7.99935 1.3335C6.1584 1.3335 4.66602 4.31826 4.66602 8.00016C4.66602 11.6821 6.1584 14.6668 7.99935 14.6668Z" fill="#777E91"/>
<path fill-rule="evenodd" clip-rule="evenodd" d="M14.6344 8.66683C14.6562 8.44756 14.6673 8.22516 14.6673 8.00016C14.6673 7.77516 14.6562 7.55277 14.6344 7.3335H1.3669C1.34513 7.55277 1.33398 7.77516 1.33398 8.00016C1.33398 8.22516 1.34513 8.44756 1.3669 8.66683H14.6344Z" fill="#777E91"/>
</svg>
