<svg width="16" height="16" viewBox="0 0 16 16" fill="none" xmlns="http://www.w3.org/2000/svg">
<path fill-rule="evenodd" clip-rule="evenodd" d="M8.00065 2.66683C6.69916 2.66683 5.49943 2.77417 4.53646 2.90135C3.6698 3.01581 3.01629 3.66931 2.90183 4.53597C2.77465 5.49894 2.66732 6.69867 2.66732 8.00016C2.66732 9.30165 2.77465 10.5014 2.90183 11.4644C3.01629 12.331 3.6698 12.9845 4.53646 13.099C5.49943 13.2262 6.69916 13.3335 8.00065 13.3335C9.30214 13.3335 10.5019 13.2262 11.4648 13.099C12.3315 12.9845 12.985 12.331 13.0995 11.4644C13.2266 10.5014 13.334 9.30165 13.334 8.00016C13.334 6.69867 13.2266 5.49894 13.0995 4.53597C12.985 3.66931 12.3315 3.01581 11.4648 2.90135C10.5019 2.77417 9.30214 2.66683 8.00065 2.66683ZM4.36188 1.57949C2.89735 1.77291 1.7734 2.89686 1.57998 4.36139C1.44701 5.36822 1.33398 6.62768 1.33398 8.00016C1.33398 9.37265 1.44701 10.6321 1.57998 11.6389C1.7734 13.1035 2.89735 14.2274 4.36188 14.4208C5.36871 14.5538 6.62817 14.6668 8.00065 14.6668C9.37313 14.6668 10.6326 14.5538 11.6394 14.4208C13.104 14.2274 14.2279 13.1035 14.4213 11.6389C14.5543 10.6321 14.6673 9.37265 14.6673 8.00016C14.6673 6.62768 14.5543 5.36822 14.4213 4.36139C14.2279 2.89686 13.104 1.77291 11.6394 1.57949C10.6326 1.44652 9.37314 1.3335 8.00065 1.3335C6.62817 1.3335 5.36871 1.44652 4.36188 1.57949Z" fill="#FCFCFD"/>
<path d="M6.00041 7.33317C6.73679 7.33317 7.33374 6.73622 7.33374 5.99984C7.33374 5.26346 6.73679 4.6665 6.00041 4.6665C5.26403 4.6665 4.66707 5.26346 4.66707 5.99984C4.66707 6.73622 5.26403 7.33317 6.00041 7.33317Z" fill="#FCFCFD"/>
<path d="M12.0813 8.47137L13.2775 9.66758C13.2362 10.2917 13.176 10.8709 13.1095 11.3852L11.1385 9.41418C10.8781 9.15382 10.456 9.15383 10.1957 9.41417L8.74795 10.8619C7.9669 11.6429 6.70057 11.6429 5.91952 10.8619L5.80514 10.7475C5.54479 10.4872 5.12268 10.4872 4.86233 10.7475L3.25629 12.3536C3.07024 12.1013 2.94576 11.7985 2.90158 11.464C2.87749 11.2816 2.8541 11.0907 2.83203 10.8922L3.91953 9.8047C4.70057 9.02365 5.9669 9.02365 6.74795 9.8047L6.86233 9.91908C7.12268 10.1794 7.54479 10.1794 7.80514 9.91908L9.25286 8.47136C10.0339 7.69032 11.3002 7.69032 12.0813 8.47137Z" fill="#FCFCFD"/>
</svg>
