<svg width="20" height="20" viewBox="0 0 20 20" fill="none" xmlns="http://www.w3.org/2000/svg">
<path fill-rule="evenodd" clip-rule="evenodd" d="M13.3327 3.33317H6.66602C4.82507 3.33317 3.33268 4.82555 3.33268 6.6665V13.3332C3.33268 15.1741 4.82507 16.6665 6.66602 16.6665H13.3327C15.1736 16.6665 16.666 15.1741 16.666 13.3332V6.6665C16.666 4.82555 15.1736 3.33317 13.3327 3.33317ZM6.66602 1.6665C3.90459 1.6665 1.66602 3.90508 1.66602 6.6665V13.3332C1.66602 16.0946 3.90459 18.3332 6.66602 18.3332H13.3327C16.0941 18.3332 18.3327 16.0946 18.3327 13.3332V6.6665C18.3327 3.90508 16.0941 1.6665 13.3327 1.6665H6.66602Z" fill="#777E91"/>
<path d="M14.1673 6.66667C14.6276 6.66667 15.0007 6.29357 15.0007 5.83333C15.0007 5.3731 14.6276 5 14.1673 5C13.7071 5 13.334 5.3731 13.334 5.83333C13.334 6.29357 13.7071 6.66667 14.1673 6.66667Z" fill="#777E91"/>
<path fill-rule="evenodd" clip-rule="evenodd" d="M14.1673 10.0002C14.1673 12.3013 12.3018 14.1668 10.0007 14.1668C7.69947 14.1668 5.83398 12.3013 5.83398 10.0002C5.83398 7.69898 7.69947 5.8335 10.0007 5.8335C12.3018 5.8335 14.1673 7.69898 14.1673 10.0002ZM12.5007 10.0002C12.5007 11.3809 11.3814 12.5002 10.0007 12.5002C8.6199 12.5002 7.50065 11.3809 7.50065 10.0002C7.50065 8.61941 8.6199 7.50016 10.0007 7.50016C11.3814 7.50016 12.5007 8.61941 12.5007 10.0002Z" fill="#777E91"/>
</svg>
