<svg width="20" height="20" viewBox="0 0 20 20" fill="none" xmlns="http://www.w3.org/2000/svg">
<path fill-rule="evenodd" clip-rule="evenodd" d="M9.99935 16.6665C13.6813 16.6665 16.666 13.6818 16.666 9.99984C16.666 6.31794 13.6813 3.33317 9.99935 3.33317C6.31745 3.33317 3.33268 6.31794 3.33268 9.99984C3.33268 13.6818 6.31745 16.6665 9.99935 16.6665ZM9.99935 18.3332C14.6017 18.3332 18.3327 14.6022 18.3327 9.99984C18.3327 5.39746 14.6017 1.6665 9.99935 1.6665C5.39697 1.6665 1.66602 5.39746 1.66602 9.99984C1.66602 14.6022 5.39697 18.3332 9.99935 18.3332Z" fill="#777E91"/>
<path d="M9.99935 8.3335C9.99935 7.87326 10.3724 7.50016 10.8327 7.50016H11.666C12.1263 7.50016 12.4993 7.12707 12.4993 6.66683C12.4993 6.2066 12.1263 5.8335 11.666 5.8335H10.8327C9.45193 5.8335 8.33268 6.95279 8.33268 8.3335V10.0002H7.49935C7.03912 10.0002 6.66602 10.3732 6.66602 10.8335C6.66602 11.2937 7.03911 11.6668 7.49935 11.6668H8.33268V16.6668C8.33268 17.1271 8.70577 17.5002 9.16602 17.5002C9.62627 17.5002 9.99935 17.1271 9.99935 16.6668V11.6668H11.666C12.1263 11.6668 12.4993 11.2937 12.4993 10.8335C12.4993 10.3732 12.1263 10.0002 11.666 10.0002H9.99935V8.3335Z" fill="#777E91"/>
</svg>
