<svg width="40" height="40" viewBox="0 0 40 40" fill="none" xmlns="http://www.w3.org/2000/svg">
<rect x="28" width="12" height="12" rx="6" fill="#45B36B"/>
<g clip-path="url(#clip0_20922_7996)">
<path d="M29 26.0233C29 26.5113 28.6043 26.907 28.1163 26.907H11.8837C11.3957 26.907 11 26.5113 11 26.0233C11 25.5352 11.3957 25.1395 11.8837 25.1395H11.9V18.9809C11.9 14.5729 15.527 11 20 11C24.473 11 28.1 14.5729 28.1 18.9809V25.1395H28.1163C28.6043 25.1395 29 25.5352 29 26.0233ZM13.7 25.1395H26.3V18.9809C26.3 15.5494 23.4794 12.7674 20 12.7674C16.5206 12.7674 13.7 15.5494 13.7 18.9809V25.1395ZM17.976 28.7558C17.7312 28.2608 18.1977 27.7907 18.75 27.7907H21.25C21.8023 27.7907 22.2688 28.2608 22.024 28.7558C21.9155 28.9751 21.7699 29.1773 21.591 29.3529C21.169 29.7672 20.5967 30 20 30C19.4033 30 18.831 29.7672 18.409 29.3529C18.2301 29.1773 18.0845 28.9751 17.976 28.7558Z" fill="#777E91"/>
</g>
<defs>
<clipPath id="clip0_20922_7996">
<rect width="24" height="24" fill="white" transform="translate(8 8)"/>
</clipPath>
</defs>
</svg>
