<svg width="26" height="28" viewBox="0 0 26 28" fill="none" xmlns="http://www.w3.org/2000/svg">
<path d="M22.0925 5.97927L15.7002 2.28868C14.1532 1.39551 12.2472 1.39551 10.7002 2.28868L4.30789 5.97927C2.76089 6.87244 1.80789 8.52307 1.80789 10.3094V17.6906C1.80789 19.4769 2.76088 21.1276 4.30789 22.0207L10.7002 25.7113C12.2472 26.6045 14.1532 26.6045 15.7002 25.7113L22.0925 22.0207C23.6395 21.1276 24.5925 19.4769 24.5925 17.6906V10.3094C24.5925 8.52307 23.6395 6.87244 22.0925 5.97927Z" fill="#45B36B" stroke="#FCFCFD" stroke-width="2"/>
<path d="M12.3026 9.56319C12.4072 9.38022 12.2524 9.15792 12.0445 9.19256L11.0728 9.35451C10.9242 9.37927 10.8311 9.52873 10.8744 9.67295L11.1771 10.6818C11.2402 10.8923 11.5246 10.9248 11.6336 10.734L12.3026 9.56319Z" fill="#FCFCFD"/>
<path d="M10.0168 10.296C9.9611 10.1102 9.72508 10.0567 9.59849 10.2037C9.20593 10.6594 8.83516 11.1383 8.45122 11.599C8.42985 11.6246 8.40947 11.6508 8.39006 11.6775C8.28594 11.8206 8.40424 12.0002 8.58124 12.0002H10.1921C10.3596 12.0002 10.4797 11.8388 10.4316 11.6784L10.0168 10.296Z" fill="#FCFCFD"/>
<path d="M8.50838 13C8.34022 13 8.22082 13.1639 8.30502 13.3095C8.33204 13.3562 8.3618 13.4018 8.39429 13.4461L11.9909 18.3506C12.051 18.4326 12.1174 18.5064 12.1888 18.5719C12.3441 18.7145 12.5388 18.5502 12.4767 18.3487L10.8828 13.1764C10.8505 13.0715 10.7536 13 10.6439 13H8.50838Z" fill="#FCFCFD"/>
<path d="M13.924 18.3488C13.8619 18.5503 14.0565 18.7147 14.2118 18.5721C14.2833 18.5065 14.3497 18.4327 14.4099 18.3506L18.0065 13.4461C18.039 13.4018 18.0688 13.3562 18.0958 13.3095C18.18 13.1639 18.0606 13 17.8924 13H15.7569C15.6471 13 15.5502 13.0715 15.5179 13.1764L13.924 18.3488Z" fill="#FCFCFD"/>
<path d="M17.8191 11.9998C17.9961 11.9998 18.1144 11.8202 18.0103 11.6771C17.9909 11.6504 17.9705 11.6242 17.9491 11.5986C17.5652 11.1378 17.1944 10.659 16.8018 10.2032C16.6752 10.0562 16.4392 10.1097 16.3835 10.2955L15.9687 11.678C15.9206 11.8384 16.0407 11.9998 16.2082 11.9998H17.8191Z" fill="#FCFCFD"/>
<path d="M15.3279 9.35453C15.4764 9.37928 15.5695 9.52874 15.5263 9.67296L15.2236 10.6819C15.1605 10.8924 14.8761 10.9249 14.7671 10.7341L14.098 9.5632C13.9934 9.38022 14.1483 9.15792 14.3561 9.19256L15.3279 9.35453Z" fill="#FCFCFD"/>
<path d="M13.2002 10.0078L14.1249 11.626C14.2201 11.7927 14.0998 12 13.9078 12H12.4926C12.3006 12 12.1803 11.7927 12.2755 11.626L13.2002 10.0078Z" fill="#FCFCFD"/>
<path d="M13.439 16.5232C13.3666 16.7586 13.0335 16.7586 12.9611 16.5232L11.9766 13.3235C11.9271 13.1628 12.0473 13 12.2155 13H14.1846C14.3528 13 14.473 13.1628 14.4235 13.3235L13.439 16.5232Z" fill="#FCFCFD"/>
</svg>
