<svg width="16" height="16" viewBox="0 0 16 16" fill="none" xmlns="http://www.w3.org/2000/svg">
<path d="M14.1105 11.2221L11.2216 14.111C10.7307 14.6019 9.93478 14.6019 9.44386 14.111C9.1984 13.8656 9.1984 13.4676 9.44386 13.2221L13.2216 9.44435C13.4671 9.19889 13.8651 9.19889 14.1105 9.44435C14.6014 9.93527 14.6014 10.7312 14.1105 11.2221Z" fill="#777E91"/>
<path d="M6.00925 7.17694C6.02307 7.05872 5.99346 6.93636 5.9093 6.85219L1.9972 2.94009C1.82778 2.77067 1.55099 2.85618 1.58487 3.09337L2.36059 8.52337C2.55163 9.86065 3.40472 11.0112 4.62884 11.5824L7.24365 12.8027C7.49769 12.9212 7.79875 12.8682 7.99698 12.6699L12.6699 7.99698C12.8682 7.79875 12.9212 7.49769 12.8027 7.24365L11.5824 4.62885C11.0112 3.40473 9.86065 2.55163 8.52337 2.36059L3.09337 1.58488C2.8561 1.55098 2.77058 1.82785 2.94005 1.99733L6.85205 5.90932C6.93622 5.99349 7.0586 6.0231 7.17683 6.00926C7.22821 6.00325 7.28049 6.00016 7.33349 6.00016C8.06987 6.00016 8.66682 6.59711 8.66682 7.33349C8.66682 8.06987 8.06987 8.66682 7.33349 8.66682C6.59711 8.66682 6.00015 8.06987 6.00015 7.33349C6.00015 7.28053 6.00324 7.22829 6.00925 7.17694Z" fill="#777E91"/>
</svg>
