<svg width="16" height="16" viewBox="0 0 16 16" fill="none" xmlns="http://www.w3.org/2000/svg">
<path d="M6.00065 12.0002C9.31436 12.0002 12.0007 9.31387 12.0007 6.00016C12.0007 5.90102 11.9982 5.80244 11.9935 5.70448C11.9839 5.50612 12.1376 5.3335 12.3362 5.3335H13.334C14.0704 5.3335 14.6673 5.93045 14.6673 6.66683V13.3335C14.6673 14.0699 14.0704 14.6668 13.334 14.6668H6.66732C5.93094 14.6668 5.33398 14.0699 5.33398 13.3335V12.3358C5.33398 12.1372 5.50661 11.9834 5.70497 11.993C5.80293 11.9978 5.90151 12.0002 6.00065 12.0002Z" fill="#777E91"/>
<path d="M10.6673 6.00016C10.6673 8.57749 8.57798 10.6668 6.00065 10.6668C3.42332 10.6668 1.33398 8.57749 1.33398 6.00016C1.33398 3.42283 3.42332 1.3335 6.00065 1.3335C8.57798 1.3335 10.6673 3.42283 10.6673 6.00016Z" fill="#777E91"/>
</svg>
