<svg width="16" height="16" viewBox="0 0 16 16" fill="none" xmlns="http://www.w3.org/2000/svg">
<path d="M13.3328 12.5332V5.97727L14.3231 6.57148C14.6388 6.76091 15.0483 6.65854 15.2378 6.34282C15.4272 6.02709 15.3248 5.61759 15.0091 5.42816L11.6612 3.41939L9.10037 1.87653L9.10032 1.8765C8.91417 1.76435 8.7713 1.67827 8.65023 1.61355C8.62197 1.59774 8.59328 1.58304 8.56422 1.56944C8.46345 1.52027 8.37611 1.48754 8.28637 1.46776C8.09734 1.42611 7.90152 1.42611 7.71249 1.46776C7.62252 1.48759 7.53496 1.52044 7.43386 1.56983C7.40532 1.5832 7.37714 1.59764 7.34939 1.61315C7.22816 1.67791 7.0851 1.76411 6.89856 1.87649L6.89853 1.87651L4.33389 3.42169L0.989786 5.42816C0.674066 5.61759 0.571689 6.02709 0.761121 6.34282C0.950553 6.65854 1.36006 6.76091 1.67578 6.57148L2.6661 5.97729V12.5332C2.6661 13.2799 2.6661 13.6533 2.81142 13.9385C2.93925 14.1894 3.14323 14.3934 3.39411 14.5212C3.67933 14.6665 4.05269 14.6665 4.79943 14.6665L5.99943 14.6665V10.6665C5.99943 9.56193 6.89486 8.6665 7.99943 8.6665C9.104 8.6665 9.99943 9.56193 9.99943 10.6665V14.6665L11.1994 14.6665C11.9462 14.6665 12.3195 14.6665 12.6048 14.5212C12.8556 14.3934 13.0596 14.1894 13.1874 13.9385C13.3328 13.6533 13.3328 13.2799 13.3328 12.5332Z" fill="#777E91"/>
</svg>
