<svg width="14" height="14" viewBox="0 0 14 14" fill="none" xmlns="http://www.w3.org/2000/svg">
<path d="M7.00016 0.333252C6.63197 0.333252 6.3335 0.631729 6.3335 0.999919V2.99992C6.3335 3.36811 6.63197 3.66659 7.00016 3.66659C7.36835 3.66659 7.66683 3.36811 7.66683 2.99992V0.999919C7.66683 0.631729 7.36835 0.333252 7.00016 0.333252Z" fill="#23262F"/>
<path d="M7.00016 10.3333C6.63197 10.3333 6.3335 10.6317 6.3335 10.9999V12.9999C6.3335 13.3681 6.63197 13.6666 7.00016 13.6666C7.36835 13.6666 7.66683 13.3681 7.66683 12.9999V10.9999C7.66683 10.6317 7.36835 10.3333 7.00016 10.3333Z" fill="#23262F"/>
<path d="M13.0002 6.33325C13.3684 6.33325 13.6668 6.63173 13.6668 6.99992C13.6668 7.36811 13.3684 7.66659 13.0002 7.66659H11.0002C10.632 7.66659 10.3335 7.36811 10.3335 6.99992C10.3335 6.63173 10.632 6.33325 11.0002 6.33325H13.0002Z" fill="#23262F"/>
<path d="M3.66683 6.99992C3.66683 6.63173 3.36835 6.33325 3.00016 6.33325H1.00016C0.631973 6.33325 0.333496 6.63173 0.333496 6.99992C0.333496 7.36811 0.631973 7.66659 1.00016 7.66659H3.00016C3.36835 7.66659 3.66683 7.36811 3.66683 6.99992Z" fill="#23262F"/>
<path d="M10.7714 2.28594C11.0318 2.02559 11.4539 2.02559 11.7142 2.28594C11.9746 2.54629 11.9746 2.9684 11.7142 3.22875L10.3 4.64296C10.0397 4.90331 9.61757 4.90331 9.35722 4.64296C9.09687 4.38261 9.09687 3.9605 9.35722 3.70015L10.7714 2.28594Z" fill="#23262F"/>
<path d="M4.64312 9.3569C4.38277 9.09655 3.96066 9.09655 3.70031 9.3569L2.28609 10.7711C2.02574 11.0315 2.02574 11.4536 2.28609 11.7139C2.54644 11.9743 2.96855 11.9743 3.2289 11.7139L4.64312 10.2997C4.90347 10.0394 4.90347 9.61725 4.64312 9.3569Z" fill="#23262F"/>
<path d="M11.7142 10.7712C11.9746 11.0315 11.9746 11.4536 11.7142 11.714C11.4539 11.9743 11.0318 11.9743 10.7714 11.714L9.3572 10.2998C9.09685 10.0394 9.09685 9.61733 9.3572 9.35698C9.61755 9.09663 10.0397 9.09663 10.3 9.35698L11.7142 10.7712Z" fill="#23262F"/>
<path d="M4.64318 4.64287C4.90353 4.38252 4.90353 3.96041 4.64318 3.70006L3.22897 2.28585C2.96862 2.0255 2.54651 2.0255 2.28616 2.28585C2.02581 2.5462 2.02581 2.96831 2.28616 3.22866L3.70037 4.64287C3.96072 4.90322 4.38283 4.90322 4.64318 4.64287Z" fill="#23262F"/>
</svg>
