<svg width="129" height="128" viewBox="0 0 129 128" fill="none" xmlns="http://www.w3.org/2000/svg">
<path d="M42.9994 5.3335H5.66602V42.6668H42.9994V5.3335ZM37.666 37.3335H10.9993V10.6668H37.666V37.3335Z" fill="#23262F"/>
<path d="M82.9993 112H77.666V122.667H122.999V117.333H82.9993V112Z" fill="#23262F"/>
<path d="M32.333 16H16.333V32H32.333V16Z" fill="#23262F"/>
<path d="M5.66602 122.667H42.9994V85.3335H5.66602V122.667ZM10.9993 90.6668H37.666V117.333H10.9993V90.6668Z" fill="#23262F"/>
<path d="M32.333 96H16.333V112H32.333V96Z" fill="#23262F"/>
<path d="M85.666 5.3335V42.6668H122.999V5.3335H85.666ZM117.666 37.3335H90.9993V10.6668H117.666V37.3335Z" fill="#23262F"/>
<path d="M112.333 16H96.333V32H112.333V16Z" fill="#23262F"/>
<path d="M123 48H112.333V58.6667H123V48Z" fill="#23262F"/>
<path d="M16.3327 69.3335H5.66602V80.0002H16.3327V69.3335Z" fill="#23262F"/>
<path d="M61.6663 48.0002H40.333V53.3335H66.9997V42.6668V37.3335H72.333V26.6668H66.9997H61.6663H56.333V16.0002H61.6663V21.3335H80.333V5.3335H74.9997V16.0002H66.9997V5.3335H64.333H53.6663H50.9997V32.0002H61.6663V37.3335H50.9997V42.6668H61.6663V48.0002Z" fill="#23262F"/>
<path d="M13.666 64H24.3327H29.666H32.3327V69.3333H21.666V74.6667H32.3327V80H53.666V74.6667H37.666V69.3333V58.6667H29.666V50.6667H24.3327V58.6667H18.9993V48H5.66602V53.3333H13.666V64Z" fill="#23262F"/>
<path d="M64.333 112V98.6667H53.6663V88H48.333V104H58.9997V112H48.333V117.333H58.9997V122.667H72.333V117.333H64.333V112Z" fill="#23262F"/>
<path d="M90.999 58.6668H80.3324V45.3335H74.999V64.0002H101.666V58.6668H96.3324V53.3335H104.332V48.0002H96.3324H90.999H85.6657V53.3335H90.999V58.6668Z" fill="#23262F"/>
<path d="M85.666 106.667H93.666V112H104.333V106.667V101.334V93.3337H93.666V101.334H85.666V93.3337H80.3327V101.334H74.9993V80.0003H69.666V74.667H64.3327V58.667H45.666V69.3337H50.9993V64.0003H58.9993V74.667V85.3337H69.666V101.334V106.667H74.9993H80.3327H85.666Z" fill="#23262F"/>
<path d="M117.666 72H109.666H104.333H90.9997V82.6667H85.6663V72H80.333V88H96.333V77.3333H104.333V85.3333H109.666V77.3333H117.666V93.3333H109.666V109.333H123V104H115V98.6667H123V77.3333V72V64H117.666V72Z" fill="#23262F"/>
</svg>
