<svg width="64" height="64" viewBox="0 0 64 64" fill="none" xmlns="http://www.w3.org/2000/svg">
<rect width="64" height="64" rx="32" fill="#EF466F"/>
<path fill-rule="evenodd" clip-rule="evenodd" d="M39 25H25C23.8954 25 23 25.8954 23 27V37C23 38.1046 23.8954 39 25 39H39C40.1046 39 41 38.1046 41 37V27C41 25.8954 40.1046 25 39 25ZM25 23C22.7909 23 21 24.7909 21 27V37C21 39.2091 22.7909 41 25 41H39C41.2091 41 43 39.2091 43 37V27C43 24.7909 41.2091 23 39 23H25Z" fill="#FCFCFD"/>
<path fill-rule="evenodd" clip-rule="evenodd" d="M33 32C33 29.2386 35.2386 27 38 27H42C42.5523 27 43 27.4477 43 28C43 28.5523 42.5523 29 42 29H38C36.3431 29 35 30.3431 35 32C35 33.6569 36.3431 35 38 35H42C42.5523 35 43 35.4477 43 36C43 36.5523 42.5523 37 42 37H38C35.2386 37 33 34.7614 33 32Z" fill="#FCFCFD"/>
<path d="M39 32C39 32.5523 38.5523 33 38 33C37.4477 33 37 32.5523 37 32C37 31.4477 37.4477 31 38 31C38.5523 31 39 31.4477 39 32Z" fill="#FCFCFD"/>
</svg>
