<svg width="16" height="16" viewBox="0 0 16 16" fill="none" xmlns="http://www.w3.org/2000/svg">
<path fill-rule="evenodd" clip-rule="evenodd" d="M12.6663 7.99992C12.6663 10.5772 10.577 12.6666 7.99967 12.6666C5.42235 12.6666 3.33301 10.5772 3.33301 7.99992C3.33301 5.42259 5.42235 3.33325 7.99967 3.33325C10.577 3.33325 12.6663 5.42259 12.6663 7.99992ZM14.6663 7.99992C14.6663 11.6818 11.6816 14.6666 7.99967 14.6666C4.31778 14.6666 1.33301 11.6818 1.33301 7.99992C1.33301 4.31802 4.31778 1.33325 7.99967 1.33325C11.6816 1.33325 14.6663 4.31802 14.6663 7.99992ZM7.99967 3.66658C8.55196 3.66658 8.99967 4.1143 8.99967 4.66658V6.99992H11.333C11.8853 6.99992 12.333 7.44763 12.333 7.99992C12.333 8.5522 11.8853 8.99992 11.333 8.99992H8.99967V11.3333C8.99967 11.8855 8.55196 12.3333 7.99967 12.3333C7.44739 12.3333 6.99967 11.8855 6.99967 11.3333V8.99992H4.66634C4.11406 8.99992 3.66634 8.5522 3.66634 7.99992C3.66634 7.44763 4.11406 6.99992 4.66634 6.99992H6.99967V4.66658C6.99967 4.1143 7.44739 3.66658 7.99967 3.66658Z" fill="#777E91"/>
</svg>
